<?xml version="1.0" standalone="no"?>
<!DOCTYPE svg PUBLIC "-//W3C//DTD SVG 20010904//EN"
 "http://www.w3.org/TR/2001/REC-SVG-20010904/DTD/svg10.dtd">
<svg version="1.0" xmlns="http://www.w3.org/2000/svg"
 width="227.000000pt" height="45.000000pt" viewBox="0 0 227.000000 45.000000"
 preserveAspectRatio="xMidYMid meet">
<metadata>
Created by potrace 1.16, written by Peter Selinger 2001-2019
</metadata>
<g transform="translate(0.000000,45.000000) scale(0.100000,-0.100000)"
fill="#000000" stroke="none">
<path d="M187 424 c-4 -4 -7 -16 -7 -27 0 -13 -5 -17 -15 -13 -9 3 -39 -4 -68
-16 l-53 -21 4 -59 c4 -57 4 -58 -22 -58 -19 0 -26 -5 -26 -19 0 -29 27 -51
63 -51 37 0 50 7 65 36 14 26 7 34 -30 34 -27 0 -28 2 -28 45 0 39 4 46 30 60
16 8 40 15 53 15 21 0 25 -5 28 -37 2 -21 2 -71 1 -111 -3 -57 -7 -75 -20 -79
-25 -9 -52 -34 -52 -50 0 -10 22 -13 95 -13 56 0 95 4 95 10 0 15 -33 50 -47
50 -19 0 -23 13 -29 99 -10 129 0 145 73 119 31 -11 33 -15 33 -60 0 -47 -1
-48 -30 -48 -34 0 -38 -14 -14 -48 21 -31 87 -31 108 0 24 34 20 48 -14 48
-29 0 -30 2 -30 43 0 24 5 48 12 55 9 9 -1 17 -43 37 -30 13 -62 22 -71 19
-12 -3 -17 2 -20 18 -3 22 -27 35 -41 22z"/>
<path d="M510 360 l0 -70 48 0 c59 0 82 20 82 72 0 48 -25 68 -83 68 l-47 0 0
-70z"/>
<path d="M860 360 l0 -71 56 3 c62 3 83 20 69 54 -4 11 -8 33 -9 49 -1 29 -2
30 -58 33 l-58 3 0 -71z"/>
</g>
</svg>
